<?xml version="1.0" standalone="no"?>
<!DOCTYPE svg PUBLIC "-//W3C//DTD SVG 20010904//EN"
 "http://www.w3.org/TR/2001/REC-SVG-20010904/DTD/svg10.dtd">
<svg version="1.0" xmlns="http://www.w3.org/2000/svg"
 width="500.000000pt" height="500.000000pt" viewBox="0 0 500.000000 500.000000"
 preserveAspectRatio="xMidYMid meet">
<metadata>
Created by potrace 1.16, written by Peter Selinger 2001-2019
</metadata>
<g transform="translate(0.000000,500.000000) scale(0.100000,-0.100000)"
fill="#000000" stroke="none">
<path d="M2374 3951 c-298 -54 -560 -190 -770 -398 -167 -167 -280 -348 -353
-568 -55 -164 -73 -278 -73 -460 0 -182 18 -296 73 -460 148 -445 515 -800
962 -929 275 -80 610 -73 874 18 497 171 854 584 959 1111 25 124 25 394 0
520 -116 588 -546 1029 -1126 1157 -137 30 -406 34 -546 9z m-70 -721 l104
-79 104 79 c76 59 111 80 133 80 22 0 57 -21 133 -79 l103 -80 105 80 c74 56
113 79 133 79 21 0 64 -28 166 -106 75 -59 141 -117 147 -130 23 -51 -19 -114
-76 -114 -27 0 -54 16 -131 75 -54 41 -102 75 -107 75 -5 0 -53 -34 -107 -75
-127 -98 -130 -98 -263 3 l-103 79 -103 -79 c-133 -101 -136 -101 -263 -3 -54
41 -102 75 -107 75 -5 0 -53 -34 -107 -75 -77 -60 -104 -75 -132 -75 -62 0
-102 66 -73 121 6 10 72 66 146 124 101 78 143 105 165 105 20 0 58 -23 133
-80z m-92 -847 l3 -146 72 146 72 147 41 0 c22 0 40 -3 40 -6 0 -3 -27 -67
-61 -142 l-61 -137 68 -168 c38 -93 71 -173 72 -178 2 -5 -16 -9 -41 -9 l-44
0 -61 147 -60 146 -21 -41 c-17 -34 -21 -59 -21 -147 l0 -105 -45 0 -45 0 0
313 c0 173 3 317 7 320 3 4 23 7 44 7 l38 0 3 -147z m568 129 c44 -22 70 -67
77 -137 l6 -55 -47 0 -46 0 0 48 c0 67 -17 87 -74 87 -25 0 -50 -5 -56 -11
-21 -21 -30 -88 -30 -234 0 -212 14 -252 85 -252 57 0 77 26 83 111 l5 71 -42
0 c-40 0 -41 1 -41 35 l0 35 80 0 80 0 0 -160 0 -160 -30 0 c-27 0 -30 3 -30
30 l0 30 -29 -32 c-27 -30 -34 -33 -89 -33 -72 0 -106 21 -137 81 -17 33 -21
63 -23 198 -2 88 -1 183 3 212 12 98 74 154 170 154 28 0 65 -8 85 -18z m410
6 c0 -7 -37 -151 -82 -320 l-83 -308 -37 0 c-21 0 -38 2 -38 4 0 4 157 587
166 619 6 20 74 25 74 5z m-1180 -241 c0 -41 -2 -43 -81 -101 l-80 -58 80 -59
c78 -57 81 -60 81 -100 0 -22 -4 -39 -8 -37 -5 2 -57 37 -115 78 l-107 75 2
45 c3 44 3 44 113 122 60 43 111 78 112 78 2 0 3 -19 3 -43z m1399 -42 l100
-70 1 -46 0 -45 -110 -77 c-60 -42 -112 -77 -115 -77 -3 0 -5 18 -5 40 0 38 3
42 80 97 44 32 79 60 79 63 0 3 -35 30 -79 60 -79 54 -80 56 -80 98 0 50 -10
54 129 -43z"/>
</g>
</svg>
